# Blender 3.1.0
# www.blender.org
mtllib ui_element_rrect.mtl
o Cube
v 0.981586 0.000000 -0.479056
v 0.981586 0.100000 -0.479056
v 0.965431 0.100000 -0.493784
v 0.965431 0.000000 -0.493784
v 0.976765 0.100000 -0.485405
v 0.976765 0.000000 -0.485405
v 0.948216 0.000000 -0.500000
v 0.948216 0.100000 -0.500000
v 0.986470 0.000000 -0.471642
v 0.986470 0.100000 -0.471642
v 0.965431 0.100000 -0.480506
v 0.965431 0.000000 -0.480506
v 0.973602 0.100000 -0.476425
v 0.973602 0.000000 -0.476425
v 0.948216 0.000000 -0.480506
v 0.948216 0.100000 -0.480506
v 0.994484 0.100000 -0.458354
v 0.965431 0.100000 -0.463278
v 0.965431 0.000000 -0.463278
v 0.973602 0.100000 -0.463278
v 0.973602 0.000000 -0.463278
v 0.948216 0.000000 -0.463278
v 0.948216 0.100000 -0.463278
v 0.994484 0.000000 -0.458354
v 1.000000 0.100000 -0.441412
v 0.965431 0.100000 -0.441412
v 0.965431 0.000000 -0.441412
v 0.982021 0.100000 -0.441412
v 0.982021 0.000000 -0.441412
v 0.948216 0.000000 -0.441412
v 0.948216 0.100000 -0.441412
v 1.000000 0.000000 -0.441412
v -0.981586 0.000000 0.479057
v -0.981586 0.100000 0.479057
v -0.965431 0.100000 0.493784
v -0.965431 0.000000 0.493784
v -0.976765 0.100000 0.485406
v -0.976765 0.000000 0.485406
v -0.948216 0.000000 0.500000
v -0.948216 0.100000 0.500000
v -0.986470 0.000000 0.471642
v -0.986470 0.100000 0.471642
v -0.965431 0.100000 0.480506
v -0.965431 0.000000 0.480506
v -0.973602 0.100000 0.476425
v -0.973602 0.000000 0.476425
v -0.948216 0.000000 0.480506
v -0.948216 0.100000 0.480506
v -0.994483 0.100000 0.458354
v -0.965431 0.100000 0.463279
v -0.965431 0.000000 0.463279
v -0.973602 0.100000 0.463279
v -0.973602 0.000000 0.463279
v -0.948216 0.000000 0.463278
v -0.948216 0.100000 0.463278
v -0.994483 0.000000 0.458354
v -1.000000 0.100000 0.441413
v -0.965431 0.100000 0.441413
v -0.965431 0.000000 0.441413
v -0.982020 0.100000 0.441413
v -0.982020 0.000000 0.441413
v -0.948216 0.000000 0.441413
v -0.948216 0.100000 0.441413
v -1.000000 0.000000 0.441413
v -0.981586 0.100000 -0.479056
v -0.981586 0.000000 -0.479056
v -0.965431 0.000000 -0.493784
v -0.965431 0.100000 -0.493784
v -0.976765 0.000000 -0.485405
v -0.976765 0.100000 -0.485405
v -0.948216 0.100000 -0.500000
v -0.948216 0.000000 -0.500000
v -0.986470 0.100000 -0.471642
v -0.986470 0.000000 -0.471642
v -0.965431 0.000000 -0.480506
v -0.965431 0.100000 -0.480506
v -0.973602 0.000000 -0.476425
v -0.973602 0.100000 -0.476425
v -0.948216 0.100000 -0.480506
v -0.948216 0.000000 -0.480506
v -0.994484 0.000000 -0.458354
v -0.965431 0.000000 -0.463278
v -0.965431 0.100000 -0.463278
v -0.973602 0.000000 -0.463278
v -0.973602 0.100000 -0.463278
v -0.948216 0.100000 -0.463278
v -0.948216 0.000000 -0.463278
v -0.994484 0.100000 -0.458354
v -1.000000 0.000000 -0.441412
v -0.965431 0.000000 -0.441412
v -0.965431 0.100000 -0.441412
v -0.982021 0.000000 -0.441412
v -0.982021 0.100000 -0.441412
v -0.948216 0.100000 -0.441412
v -0.948216 0.000000 -0.441412
v -1.000000 0.100000 -0.441412
v 0.981586 0.100000 0.479056
v 0.981586 -0.000000 0.479056
v 0.965431 -0.000000 0.493784
v 0.965431 0.100000 0.493784
v 0.976765 -0.000000 0.485405
v 0.976765 0.100000 0.485405
v 0.948216 0.100000 0.500000
v 0.948216 -0.000000 0.500000
v 0.986470 0.100000 0.471642
v 0.986470 -0.000000 0.471642
v 0.965431 -0.000000 0.480506
v 0.965431 0.100000 0.480506
v 0.973602 -0.000000 0.476424
v 0.973602 0.100000 0.476425
v 0.948216 0.100000 0.480506
v 0.948216 -0.000000 0.480506
v 0.994484 -0.000000 0.458353
v 0.965431 -0.000000 0.463278
v 0.965431 0.100000 0.463278
v 0.973602 -0.000000 0.463278
v 0.973602 0.100000 0.463278
v 0.948216 0.100000 0.463278
v 0.948216 -0.000000 0.463278
v 0.994484 0.100000 0.458354
v 1.000000 -0.000000 0.441412
v 0.965431 -0.000000 0.441412
v 0.965431 0.100000 0.441412
v 0.982021 -0.000000 0.441412
v 0.982021 0.100000 0.441412
v 0.948216 0.100000 0.441412
v 0.948216 -0.000000 0.441412
v 1.000000 0.100000 0.441412
vn 0.7964 -0.0000 -0.6047
vn 0.3396 -0.0000 -0.9406
vn 0.5944 -0.0000 -0.8041
vn -0.0000 -0.0000 1.0000
vn -0.0000 1.0000 -0.0000
vn -0.0000 -1.0000 -0.0000
vn 0.8351 -0.0000 -0.5501
vn 0.8563 -0.0000 -0.5164
vn 0.9509 -0.0000 -0.3096
vn -0.7964 -0.0000 0.6047
vn -0.3396 -0.0000 0.9406
vn -0.5944 -0.0000 0.8041
vn 1.0000 -0.0000 -0.0000
vn -1.0000 -0.0000 -0.0000
vn -0.0000 -0.0000 -1.0000
vn -0.8351 -0.0000 0.5501
vn -0.8563 -0.0000 0.5164
vn -0.9509 -0.0000 0.3096
vn -0.7964 -0.0000 -0.6047
vn -0.3396 -0.0000 -0.9406
vn -0.5944 -0.0000 -0.8041
vn -0.8351 -0.0000 -0.5501
vn -0.8564 -0.0000 -0.5164
vn -0.9509 -0.0000 -0.3096
vn 0.7964 -0.0000 0.6047
vn 0.3396 -0.0000 0.9406
vn 0.5944 -0.0000 0.8041
vn 0.8351 -0.0000 0.5501
vn 0.8563 -0.0000 0.5164
vn 0.9509 -0.0000 0.3096
vt 0.375000 0.500000
vt 0.625000 0.500000
vt 0.625000 0.437500
vt 0.687500 0.500000
vt 0.375000 0.437500
vt 0.312500 0.500000
vt 0.625000 0.468750
vt 0.656250 0.500000
vt 0.375000 0.468750
vt 0.343750 0.500000
vt 0.375000 0.406250
vt 0.281250 0.500000
vt 0.718750 0.500000
vt 0.625000 0.406250
vt 0.375000 0.562500
vt 0.625000 0.562500
vt 0.687500 0.562500
vt 0.312500 0.562500
vt 0.656250 0.562500
vt 0.343750 0.562500
vt 0.281250 0.562500
vt 0.718750 0.562500
vt 0.625000 0.593750
vt 0.687500 0.593750
vt 0.312500 0.593750
vt 0.656250 0.593750
vt 0.343750 0.593750
vt 0.281250 0.593750
vt 0.718750 0.593750
vt 0.375000 0.593750
vt 0.625000 0.609375
vt 0.687500 0.609375
vt 0.312500 0.609375
vt 0.656250 0.609375
vt 0.343750 0.609375
vt 0.281250 0.609375
vt 0.718750 0.609375
vt 0.375000 0.609375
vt 0.375000 0.500000
vt 0.625000 0.500000
vt 0.625000 0.437500
vt 0.687500 0.500000
vt 0.375000 0.437500
vt 0.312500 0.500000
vt 0.625000 0.468750
vt 0.656250 0.500000
vt 0.375000 0.468750
vt 0.343750 0.500000
vt 0.375000 0.406250
vt 0.281250 0.500000
vt 0.625000 0.406250
vt 0.718750 0.500000
vt 0.375000 0.562500
vt 0.625000 0.562500
vt 0.687500 0.562500
vt 0.312500 0.562500
vt 0.656250 0.562500
vt 0.343750 0.562500
vt 0.281250 0.562500
vt 0.718750 0.562500
vt 0.625000 0.593750
vt 0.687500 0.593750
vt 0.312500 0.593750
vt 0.656250 0.593750
vt 0.343750 0.593750
vt 0.281250 0.593750
vt 0.718750 0.593750
vt 0.375000 0.593750
vt 0.625000 0.609375
vt 0.687500 0.609375
vt 0.312500 0.609375
vt 0.656250 0.609375
vt 0.343750 0.609375
vt 0.281250 0.609375
vt 0.718750 0.609375
vt 0.375000 0.609375
vt 0.375000 0.500000
vt 0.625000 0.500000
vt 0.625000 0.437500
vt 0.687500 0.500000
vt 0.375000 0.437500
vt 0.312500 0.500000
vt 0.625000 0.468750
vt 0.656250 0.500000
vt 0.375000 0.468750
vt 0.343750 0.500000
vt 0.375000 0.406250
vt 0.281250 0.500000
vt 0.625000 0.406250
vt 0.718750 0.500000
vt 0.375000 0.562500
vt 0.625000 0.562500
vt 0.687500 0.562500
vt 0.312500 0.562500
vt 0.656250 0.562500
vt 0.343750 0.562500
vt 0.281250 0.562500
vt 0.718750 0.562500
vt 0.625000 0.593750
vt 0.687500 0.593750
vt 0.312500 0.593750
vt 0.656250 0.593750
vt 0.343750 0.593750
vt 0.281250 0.593750
vt 0.718750 0.593750
vt 0.375000 0.593750
vt 0.625000 0.609375
vt 0.687500 0.609375
vt 0.312500 0.609375
vt 0.656250 0.609375
vt 0.343750 0.609375
vt 0.281250 0.609375
vt 0.718750 0.609375
vt 0.375000 0.609375
vt 0.375000 0.500000
vt 0.625000 0.500000
vt 0.625000 0.437500
vt 0.687500 0.500000
vt 0.375000 0.437500
vt 0.312500 0.500000
vt 0.625000 0.468750
vt 0.656250 0.500000
vt 0.375000 0.468750
vt 0.343750 0.500000
vt 0.375000 0.406250
vt 0.281250 0.500000
vt 0.625000 0.406250
vt 0.718750 0.500000
vt 0.375000 0.562500
vt 0.625000 0.562500
vt 0.687500 0.562500
vt 0.312500 0.562500
vt 0.656250 0.562500
vt 0.343750 0.562500
vt 0.281250 0.562500
vt 0.718750 0.562500
vt 0.625000 0.593750
vt 0.687500 0.593750
vt 0.312500 0.593750
vt 0.656250 0.593750
vt 0.343750 0.593750
vt 0.281250 0.593750
vt 0.718750 0.593750
vt 0.375000 0.593750
vt 0.625000 0.609375
vt 0.687500 0.609375
vt 0.312500 0.609375
vt 0.656250 0.609375
vt 0.343750 0.609375
vt 0.281250 0.609375
vt 0.718750 0.609375
vt 0.375000 0.609375
s 0
f 6/9/1 5/7/1 2/2/1 1/1/1
f 7/11/2 8/14/2 3/3/2 4/5/2
f 4/5/3 3/3/3 5/7/3 6/9/3
f 104/127/4 103/125/4 40/51/4 39/49/4
f 125/149/5 128/152/5 25/31/5 28/34/5
f 122/146/6 127/151/6 30/36/6 27/33/6
f 16/22/5 79/97/5 86/104/5 23/29/5
f 121/145/6 124/148/6 29/35/6 32/38/6
f 126/150/5 123/147/5 26/32/5 31/37/5
f 126/150/5 31/37/5 94/112/5 63/75/5
f 92/110/6 90/108/6 59/71/6 61/73/6
f 1/1/7 2/2/7 10/16/7 9/15/7
f 6/10/6 1/1/6 9/15/6 14/20/6
f 103/126/5 111/135/5 48/60/5 40/52/5
f 5/8/5 3/4/5 11/17/5 13/19/5
f 7/12/6 4/6/6 12/18/6 15/21/6
f 2/2/5 5/8/5 13/19/5 10/16/5
f 4/6/6 6/10/6 14/20/6 12/18/6
f 80/98/6 15/21/6 22/28/6 87/105/6
f 3/4/5 8/13/5 16/22/5 11/17/5
f 9/15/8 10/16/8 17/23/8 24/30/8
f 14/20/6 9/15/6 24/30/6 21/27/6
f 23/29/5 86/104/5 94/112/5 31/37/5
f 13/19/5 11/17/5 18/24/5 20/26/5
f 15/21/6 12/18/6 19/25/6 22/28/6
f 10/16/5 13/19/5 20/26/5 17/23/5
f 12/18/6 14/20/6 21/27/6 19/25/6
f 87/105/6 22/28/6 30/36/6 95/113/6
f 11/17/5 16/22/5 23/29/5 18/24/5
f 24/30/9 17/23/9 25/31/9 32/38/9
f 21/27/6 24/30/6 32/38/6 29/35/6
f 71/88/5 79/97/5 16/22/5 8/13/5
f 20/26/5 18/24/5 26/32/5 28/34/5
f 22/28/6 19/25/6 27/33/6 30/36/6
f 17/23/5 20/26/5 28/34/5 25/31/5
f 19/25/6 21/27/6 29/35/6 27/33/6
f 124/148/6 122/146/6 27/33/6 29/35/6
f 18/24/5 23/29/5 31/37/5 26/32/5
f 38/47/10 37/45/10 34/40/10 33/39/10
f 39/49/11 40/51/11 35/41/11 36/43/11
f 36/43/12 35/41/12 37/45/12 38/47/12
f 128/152/13 121/145/13 32/38/13 25/31/13
f 93/111/5 96/114/5 57/69/5 60/72/5
f 123/147/5 125/149/5 28/34/5 26/32/5
f 90/108/6 95/113/6 62/74/6 59/71/6
f 91/109/5 93/111/5 60/72/5 58/70/5
f 89/107/6 92/110/6 61/73/6 64/76/6
f 96/114/14 89/107/14 64/76/14 57/69/14
f 104/128/6 39/50/6 47/59/6 112/136/6
f 72/89/15 71/87/15 8/14/15 7/11/15
f 33/39/16 34/40/16 42/54/16 41/53/16
f 38/48/6 33/39/6 41/53/6 46/58/6
f 111/135/5 118/142/5 55/67/5 48/60/5
f 37/46/5 35/42/5 43/55/5 45/57/5
f 39/50/6 36/44/6 44/56/6 47/59/6
f 34/40/5 37/46/5 45/57/5 42/54/5
f 36/44/6 38/48/6 46/58/6 44/56/6
f 112/136/6 47/59/6 54/66/6 119/143/6
f 35/42/5 40/52/5 48/60/5 43/55/5
f 41/53/17 42/54/17 49/61/17 56/68/17
f 46/58/6 41/53/6 56/68/6 53/65/6
f 118/142/5 126/150/5 63/75/5 55/67/5
f 45/57/5 43/55/5 50/62/5 52/64/5
f 47/59/6 44/56/6 51/63/6 54/66/6
f 42/54/5 45/57/5 52/64/5 49/61/5
f 44/56/6 46/58/6 53/65/6 51/63/6
f 119/143/6 54/66/6 62/74/6 127/151/6
f 43/55/5 48/60/5 55/67/5 50/62/5
f 56/68/18 49/61/18 57/69/18 64/76/18
f 53/65/6 56/68/6 64/76/6 61/73/6
f 94/112/5 91/109/5 58/70/5 63/75/5
f 52/64/5 50/62/5 58/70/5 60/72/5
f 54/66/6 51/63/6 59/71/6 62/74/6
f 49/61/5 52/64/5 60/72/5 57/69/5
f 51/63/6 53/65/6 61/73/6 59/71/6
f 50/62/5 55/67/5 63/75/5 58/70/5
f 70/85/19 69/83/19 66/78/19 65/77/19
f 71/87/20 72/89/20 67/79/20 68/81/20
f 68/81/21 67/79/21 69/83/21 70/85/21
f 65/77/22 66/78/22 74/92/22 73/91/22
f 70/86/5 65/77/5 73/91/5 78/96/5
f 69/84/6 67/80/6 75/93/6 77/95/6
f 71/88/5 68/82/5 76/94/5 79/97/5
f 66/78/6 69/84/6 77/95/6 74/92/6
f 68/82/5 70/86/5 78/96/5 76/94/5
f 67/80/6 72/90/6 80/98/6 75/93/6
f 73/91/23 74/92/23 81/99/23 88/106/23
f 78/96/5 73/91/5 88/106/5 85/103/5
f 77/95/6 75/93/6 82/100/6 84/102/6
f 79/97/5 76/94/5 83/101/5 86/104/5
f 74/92/6 77/95/6 84/102/6 81/99/6
f 76/94/5 78/96/5 85/103/5 83/101/5
f 75/93/6 80/98/6 87/105/6 82/100/6
f 88/106/24 81/99/24 89/107/24 96/114/24
f 85/103/5 88/106/5 96/114/5 93/111/5
f 84/102/6 82/100/6 90/108/6 92/110/6
f 86/104/5 83/101/5 91/109/5 94/112/5
f 81/99/6 84/102/6 92/110/6 89/107/6
f 83/101/5 85/103/5 93/111/5 91/109/5
f 82/100/6 87/105/6 95/113/6 90/108/6
f 102/123/25 101/121/25 98/116/25 97/115/25
f 103/125/26 104/127/26 99/117/26 100/119/26
f 100/119/27 99/117/27 101/121/27 102/123/27
f 95/113/6 30/36/6 127/151/6 62/74/6
f 97/115/28 98/116/28 106/130/28 105/129/28
f 102/124/5 97/115/5 105/129/5 110/134/5
f 101/122/6 99/118/6 107/131/6 109/133/6
f 103/126/5 100/120/5 108/132/5 111/135/5
f 98/116/6 101/122/6 109/133/6 106/130/6
f 100/120/5 102/124/5 110/134/5 108/132/5
f 99/118/6 104/128/6 112/136/6 107/131/6
f 105/129/29 106/130/29 113/137/29 120/144/29
f 110/134/5 105/129/5 120/144/5 117/141/5
f 109/133/6 107/131/6 114/138/6 116/140/6
f 111/135/5 108/132/5 115/139/5 118/142/5
f 106/130/6 109/133/6 116/140/6 113/137/6
f 108/132/5 110/134/5 117/141/5 115/139/5
f 107/131/6 112/136/6 119/143/6 114/138/6
f 120/144/30 113/137/30 121/145/30 128/152/30
f 117/141/5 120/144/5 128/152/5 125/149/5
f 116/140/6 114/138/6 122/146/6 124/148/6
f 118/142/5 115/139/5 123/147/5 126/150/5
f 113/137/6 116/140/6 124/148/6 121/145/6
f 115/139/5 117/141/5 125/149/5 123/147/5
f 114/138/6 119/143/6 127/151/6 122/146/6
f 72/90/6 7/12/6 15/21/6 80/98/6
