# Blender 3.1.0
# www.blender.org
mtllib upperΔ.mtl
o Text
v 0.006711 0.010000 -0.031320
v 0.199478 0.010000 -0.520134
v 0.260626 0.010000 -0.520134
v 0.451156 0.010000 -0.031320
v 0.451156 0.010000 0.000000
v 0.006711 0.010000 0.000000
v 0.214019 0.010000 -0.453020
v 0.055183 0.010000 -0.039523
v 0.373975 0.010000 -0.039523
v 0.006711 -0.010000 -0.031320
v 0.199478 -0.010000 -0.520134
v 0.260626 -0.010000 -0.520134
v 0.451156 -0.010000 -0.031320
v 0.451156 -0.010000 0.000000
v 0.006711 -0.010000 0.000000
v 0.214019 -0.010000 -0.453020
v 0.055183 -0.010000 -0.039523
v 0.373975 -0.010000 -0.039523
v 0.006711 -0.010000 -0.031320
v 0.006711 0.010000 -0.031320
v 0.199478 -0.010000 -0.520134
v 0.199478 0.010000 -0.520134
v 0.260626 -0.010000 -0.520134
v 0.260626 0.010000 -0.520134
v 0.451156 -0.010000 -0.031320
v 0.451156 0.010000 -0.031320
v 0.451156 -0.010000 0.000000
v 0.451156 0.010000 0.000000
v 0.006711 -0.010000 0.000000
v 0.006711 0.010000 0.000000
v 0.214019 -0.010000 -0.453020
v 0.214019 0.010000 -0.453020
v 0.055183 -0.010000 -0.039523
v 0.055183 0.010000 -0.039523
v 0.373975 -0.010000 -0.039523
v 0.373975 0.010000 -0.039523
vn -0.0000 1.0000 -0.0000
vn -0.0000 -1.0000 -0.0000
vn -0.9824 -0.0000 -0.1867
vn -0.5626 -0.0000 -0.8267
vn 0.5643 -0.0000 -0.8256
vn 0.9828 -0.0000 -0.1848
vn 0.7071 -0.0000 0.7071
vn -0.7071 -0.0000 0.7071
vn 0.0012 -0.0000 1.0000
vn 0.8242 -0.0000 -0.5663
vn -0.8249 -0.0000 -0.5653
vt 0.000000 0.000000
vt 0.125000 0.000000
vt 0.250000 0.000000
vt 0.375000 0.000000
vt 0.500000 0.000000
vt 0.625000 0.000000
vt 0.750000 0.000000
vt 0.875000 0.000000
vt 1.000000 0.000000
vt 0.000000 0.000000
vt 0.125000 0.000000
vt 0.250000 0.000000
vt 0.375000 0.000000
vt 0.500000 0.000000
vt 0.625000 0.000000
vt 0.750000 0.000000
vt 0.875000 0.000000
vt 1.000000 0.000000
vt 0.000000 0.000000
vt 1.000000 0.000000
vt 0.000000 1.000000
vt 1.000000 1.000000
vt 0.166667 0.000000
vt 0.166667 1.000000
vt 0.333333 0.000000
vt 0.333333 1.000000
vt 0.500000 0.000000
vt 0.500000 1.000000
vt 0.666667 0.000000
vt 0.666667 1.000000
vt 0.833333 0.000000
vt 0.833333 1.000000
vt 0.000000 0.000000
vt 1.000000 0.000000
vt 0.000000 1.000000
vt 1.000000 1.000000
vt 0.333333 0.000000
vt 0.333333 1.000000
vt 0.666667 0.000000
vt 0.666667 1.000000
s 0
f 1/1/1 7/7/1 2/2/1
f 7/7/1 3/3/1 2/2/1
f 7/7/1 4/4/1 3/3/1
f 1/1/1 8/8/1 7/7/1
f 9/9/1 4/4/1 7/7/1
f 1/1/1 9/9/1 8/8/1
f 1/1/1 4/4/1 9/9/1
f 6/6/1 4/4/1 1/1/1
f 6/6/1 5/5/1 4/4/1
f 10/10/2 11/11/2 16/16/2
f 16/16/2 11/11/2 12/12/2
f 16/16/2 12/12/2 13/13/2
f 10/10/2 16/16/2 17/17/2
f 18/18/2 16/16/2 13/13/2
f 10/10/2 17/17/2 18/18/2
f 10/10/2 18/18/2 13/13/2
f 15/15/2 10/10/2 13/13/2
f 15/15/2 13/13/2 14/14/2
s 1
f 20/21/3 22/24/4 21/23/4 19/19/3
f 22/24/4 24/26/5 23/25/5 21/23/4
f 24/26/5 26/28/6 25/27/6 23/25/5
f 26/28/6 28/30/7 27/29/7 25/27/6
f 28/30/7 30/32/8 29/31/8 27/29/7
f 30/32/8 20/22/3 19/20/3 29/31/8
f 32/35/9 34/38/10 33/37/10 31/33/9
f 34/38/10 36/40/11 35/39/11 33/37/10
f 36/40/11 32/36/9 31/34/9 35/39/11
